<mxfile host="65bd71144e">
    <diagram id="wnUQLy2C2pSzw91083lf" name="ページ1">
        <mxGraphModel dx="3049" dy="1562" grid="1" gridSize="10" guides="1" tooltips="1" connect="1" arrows="1" fold="1" page="1" pageScale="1" pageWidth="827" pageHeight="1169" math="0" shadow="0">
            <root>
                <mxCell id="0"/>
                <mxCell id="1" parent="0"/>
                <mxCell id="24" value="" style="rounded=1;whiteSpace=wrap;html=1;absoluteArcSize=1;arcSize=14;strokeWidth=2;sketch=0;fontColor=#5C5C5C;fillColor=#00FFFF;" parent="1" vertex="1">
                    <mxGeometry x="-160" y="40" width="600" height="40" as="geometry"/>
                </mxCell>
                <mxCell id="26" value="&lt;b&gt;グローバルナビゲーション(ログアウト中)&lt;/b&gt;" style="text;html=1;align=center;verticalAlign=middle;resizable=0;points=[];autosize=1;strokeColor=none;fontColor=#5C5C5C;" parent="1" vertex="1">
                    <mxGeometry x="20" y="50" width="240" height="20" as="geometry"/>
                </mxCell>
                <mxCell id="27" value="&lt;b&gt;グローバルナビゲーション(ログイン中)&lt;/b&gt;" style="text;html=1;align=center;verticalAlign=middle;resizable=0;points=[];autosize=1;strokeColor=none;fontColor=#5C5C5C;" parent="1" vertex="1">
                    <mxGeometry x="570" y="50" width="220" height="20" as="geometry"/>
                </mxCell>
                <mxCell id="28" value="" style="rounded=1;whiteSpace=wrap;html=1;absoluteArcSize=1;arcSize=14;strokeWidth=2;sketch=0;fontColor=#5C5C5C;fillColor=#E6E6E6;" parent="1" vertex="1">
                    <mxGeometry x="-160" y="80" width="600" height="40" as="geometry"/>
                </mxCell>
                <mxCell id="29" value="" style="rounded=1;whiteSpace=wrap;html=1;absoluteArcSize=1;arcSize=14;strokeWidth=2;sketch=0;fontColor=#5C5C5C;fillColor=#E6E6E6;" parent="1" vertex="1">
                    <mxGeometry x="520" y="80" width="1400" height="40" as="geometry"/>
                </mxCell>
                <mxCell id="30" value="" style="line;strokeWidth=1;direction=south;html=1;perimeter=backbonePerimeter;points=[];outlineConnect=0;rounded=0;sketch=0;fontColor=#5C5C5C;fillColor=#E6E6E6;dashed=1;" parent="1" vertex="1">
                    <mxGeometry x="235" y="80" width="10" height="40" as="geometry"/>
                </mxCell>
                <mxCell id="31" value="" style="line;strokeWidth=1;direction=south;html=1;perimeter=backbonePerimeter;points=[];outlineConnect=0;rounded=0;sketch=0;fontColor=#5C5C5C;fillColor=#E6E6E6;dashed=1;" parent="1" vertex="1">
                    <mxGeometry x="715" y="80" width="10" height="40" as="geometry"/>
                </mxCell>
                <mxCell id="32" value="「ログイン」をクリック" style="text;html=1;align=center;verticalAlign=middle;resizable=0;points=[];autosize=1;strokeColor=none;fontColor=#5C5C5C;" parent="1" vertex="1">
                    <mxGeometry x="270" y="90" width="150" height="20" as="geometry"/>
                </mxCell>
                <mxCell id="33" value="&lt;font style=&quot;font-size: 12px&quot;&gt;「アカウント登録」をクリック&lt;/font&gt;" style="text;html=1;align=center;verticalAlign=middle;resizable=0;points=[];autosize=1;strokeColor=none;fontColor=#5C5C5C;" parent="1" vertex="1">
                    <mxGeometry x="45" y="90" width="180" height="20" as="geometry"/>
                </mxCell>
                <mxCell id="35" value="" style="rounded=1;whiteSpace=wrap;html=1;absoluteArcSize=1;arcSize=14;strokeWidth=2;sketch=0;fontColor=#5C5C5C;fillColor=#00FFFF;" parent="1" vertex="1">
                    <mxGeometry x="520" y="40" width="1400" height="40" as="geometry"/>
                </mxCell>
                <mxCell id="37" value="&lt;b&gt;グローバルナビゲーション(ログイン中)&lt;/b&gt;" style="text;html=1;align=center;verticalAlign=middle;resizable=0;points=[];autosize=1;strokeColor=none;fontColor=#5C5C5C;" parent="1" vertex="1">
                    <mxGeometry x="905" y="50" width="220" height="20" as="geometry"/>
                </mxCell>
                <mxCell id="44" value="" style="rounded=1;whiteSpace=wrap;html=1;absoluteArcSize=1;arcSize=14;strokeWidth=2;sketch=0;fontColor=#5C5C5C;fillColor=#00FFFF;" parent="1" vertex="1">
                    <mxGeometry x="120" y="240" width="240" height="40" as="geometry"/>
                </mxCell>
                <mxCell id="45" value="&lt;b&gt;アカウント登録画面&lt;/b&gt;" style="text;html=1;align=center;verticalAlign=middle;resizable=0;points=[];autosize=1;strokeColor=none;fontColor=#5C5C5C;" parent="1" vertex="1">
                    <mxGeometry x="180" y="250" width="120" height="20" as="geometry"/>
                </mxCell>
                <mxCell id="46" value="" style="rounded=1;whiteSpace=wrap;html=1;absoluteArcSize=1;arcSize=14;strokeWidth=2;sketch=0;fontColor=#5C5C5C;fillColor=#E6E6E6;" parent="1" vertex="1">
                    <mxGeometry x="120" y="280" width="240" height="40" as="geometry"/>
                </mxCell>
                <mxCell id="48" value="&lt;font style=&quot;font-size: 12px&quot;&gt;「登録」をクリック&lt;/font&gt;" style="text;html=1;align=center;verticalAlign=middle;resizable=0;points=[];autosize=1;strokeColor=none;fontColor=#5C5C5C;" parent="1" vertex="1">
                    <mxGeometry x="180" y="290" width="120" height="20" as="geometry"/>
                </mxCell>
                <mxCell id="50" value="「ログアウト」をクリック" style="text;html=1;align=center;verticalAlign=middle;resizable=0;points=[];autosize=1;strokeColor=none;fontColor=#5C5C5C;" parent="1" vertex="1">
                    <mxGeometry x="535" y="90" width="160" height="20" as="geometry"/>
                </mxCell>
                <mxCell id="51" value="" style="rounded=1;whiteSpace=wrap;html=1;absoluteArcSize=1;arcSize=14;strokeWidth=2;sketch=0;fontColor=#5C5C5C;fillColor=#00FFFF;" parent="1" vertex="1">
                    <mxGeometry x="480" y="240" width="200" height="40" as="geometry"/>
                </mxCell>
                <mxCell id="52" value="&lt;b&gt;ログイン画面&lt;/b&gt;" style="text;html=1;align=center;verticalAlign=middle;resizable=0;points=[];autosize=1;strokeColor=none;fontColor=#5C5C5C;" parent="1" vertex="1">
                    <mxGeometry x="530" y="250" width="90" height="20" as="geometry"/>
                </mxCell>
                <mxCell id="53" value="" style="rounded=1;whiteSpace=wrap;html=1;absoluteArcSize=1;arcSize=14;strokeWidth=2;sketch=0;fontColor=#5C5C5C;fillColor=#E6E6E6;" parent="1" vertex="1">
                    <mxGeometry x="480" y="280" width="200" height="40" as="geometry"/>
                </mxCell>
                <mxCell id="54" value="「ログイン」をクリック" style="text;html=1;align=center;verticalAlign=middle;resizable=0;points=[];autosize=1;strokeColor=none;fontColor=#5C5C5C;" parent="1" vertex="1">
                    <mxGeometry x="500" y="290" width="150" height="20" as="geometry"/>
                </mxCell>
                <mxCell id="58" value="" style="endArrow=classic;html=1;fontColor=#5C5C5C;fillColor=#21C0A5;" parent="1" edge="1">
                    <mxGeometry width="50" height="50" relative="1" as="geometry">
                        <mxPoint x="160" y="122" as="sourcePoint"/>
                        <mxPoint x="160" y="240" as="targetPoint"/>
                    </mxGeometry>
                </mxCell>
                <mxCell id="59" value="" style="endArrow=classic;html=1;fontColor=#5C5C5C;fillColor=#21C0A5;" parent="1" edge="1">
                    <mxGeometry width="50" height="50" relative="1" as="geometry">
                        <mxPoint x="620" y="122" as="sourcePoint"/>
                        <mxPoint x="619.5" y="240" as="targetPoint"/>
                    </mxGeometry>
                </mxCell>
                <mxCell id="60" value="" style="endArrow=classic;html=1;fontColor=#5C5C5C;fillColor=#21C0A5;exitX=0.869;exitY=1.025;exitDx=0;exitDy=0;exitPerimeter=0;entryX=0.207;entryY=-0.005;entryDx=0;entryDy=0;entryPerimeter=0;" parent="1" source="28" target="51" edge="1">
                    <mxGeometry width="50" height="50" relative="1" as="geometry">
                        <mxPoint x="340.4000000000001" y="109.99999999999996" as="sourcePoint"/>
                        <mxPoint x="560" y="180" as="targetPoint"/>
                        <Array as="points">
                            <mxPoint x="360" y="180"/>
                            <mxPoint x="521" y="180"/>
                        </Array>
                    </mxGeometry>
                </mxCell>
                <mxCell id="62" value="「マイページ」をクリック" style="text;html=1;align=center;verticalAlign=middle;resizable=0;points=[];autosize=1;strokeColor=none;fontColor=#5C5C5C;" parent="1" vertex="1">
                    <mxGeometry x="740" y="90" width="160" height="20" as="geometry"/>
                </mxCell>
                <mxCell id="63" value="" style="rounded=1;whiteSpace=wrap;html=1;absoluteArcSize=1;arcSize=14;strokeWidth=2;sketch=0;fontColor=#5C5C5C;fillColor=#00FFFF;" parent="1" vertex="1">
                    <mxGeometry x="120" y="440" width="800" height="40" as="geometry"/>
                </mxCell>
                <mxCell id="64" value="" style="rounded=1;whiteSpace=wrap;html=1;absoluteArcSize=1;arcSize=14;strokeWidth=2;sketch=0;fontColor=#5C5C5C;fillColor=#E6E6E6;" parent="1" vertex="1">
                    <mxGeometry x="120" y="480" width="200" height="40" as="geometry"/>
                </mxCell>
                <mxCell id="65" value="&lt;b&gt;マイページ画面&lt;/b&gt;" style="text;html=1;align=center;verticalAlign=middle;resizable=0;points=[];autosize=1;strokeColor=none;fontColor=#5C5C5C;" parent="1" vertex="1">
                    <mxGeometry x="470" y="450" width="100" height="20" as="geometry"/>
                </mxCell>
                <mxCell id="72" value="「編集」をクリック" style="text;html=1;align=center;verticalAlign=middle;resizable=0;points=[];autosize=1;strokeColor=none;fontColor=#5C5C5C;" parent="1" vertex="1">
                    <mxGeometry x="160" y="490" width="120" height="20" as="geometry"/>
                </mxCell>
                <mxCell id="76" value="" style="rounded=1;whiteSpace=wrap;html=1;absoluteArcSize=1;arcSize=14;strokeWidth=2;sketch=0;fontColor=#5C5C5C;fillColor=#00FFFF;" parent="1" vertex="1">
                    <mxGeometry x="120" y="600" width="200" height="40" as="geometry"/>
                </mxCell>
                <mxCell id="78" value="&lt;b&gt;マイページ編集画面&lt;/b&gt;" style="text;html=1;align=center;verticalAlign=middle;resizable=0;points=[];autosize=1;strokeColor=none;fontColor=#5C5C5C;" parent="1" vertex="1">
                    <mxGeometry x="160" y="610" width="120" height="20" as="geometry"/>
                </mxCell>
                <mxCell id="84" value="成功" style="text;html=1;align=center;verticalAlign=middle;resizable=0;points=[];autosize=1;strokeColor=none;fontColor=#5C5C5C;fontStyle=1" parent="1" vertex="1">
                    <mxGeometry x="320" y="640" width="40" height="20" as="geometry"/>
                </mxCell>
                <mxCell id="86" value="" style="rounded=1;whiteSpace=wrap;html=1;absoluteArcSize=1;arcSize=14;strokeWidth=2;sketch=0;fontColor=#5C5C5C;fillColor=#E6E6E6;" parent="1" vertex="1">
                    <mxGeometry x="120" y="640" width="200" height="40" as="geometry"/>
                </mxCell>
                <mxCell id="88" value="" style="rounded=1;whiteSpace=wrap;html=1;absoluteArcSize=1;arcSize=14;strokeWidth=2;sketch=0;fontColor=#5C5C5C;fillColor=#E6E6E6;" parent="1" vertex="1">
                    <mxGeometry x="120" y="680" width="200" height="40" as="geometry"/>
                </mxCell>
                <mxCell id="89" value="" style="rounded=1;whiteSpace=wrap;html=1;absoluteArcSize=1;arcSize=14;strokeWidth=2;sketch=0;fontColor=#5C5C5C;fillColor=#E6E6E6;" parent="1" vertex="1">
                    <mxGeometry x="520" y="480" width="200" height="40" as="geometry"/>
                </mxCell>
                <mxCell id="90" value="" style="rounded=1;whiteSpace=wrap;html=1;absoluteArcSize=1;arcSize=14;strokeWidth=2;sketch=0;fontColor=#5C5C5C;fillColor=#00FFFF;" parent="1" vertex="1">
                    <mxGeometry x="760" y="600" width="200" height="50" as="geometry"/>
                </mxCell>
                <mxCell id="91" value="「フォロー解除」をクリック" style="rounded=1;whiteSpace=wrap;html=1;absoluteArcSize=1;arcSize=14;strokeWidth=2;sketch=0;fontColor=#5C5C5C;fillColor=#E6E6E6;" parent="1" vertex="1">
                    <mxGeometry x="760" y="650" width="200" height="40" as="geometry"/>
                </mxCell>
                <mxCell id="93" value="「レシピ詳細」をクリック" style="text;html=1;align=center;verticalAlign=middle;resizable=0;points=[];autosize=1;strokeColor=none;fontColor=#5C5C5C;fontSize=11;" parent="1" vertex="1">
                    <mxGeometry x="540" y="490" width="150" height="20" as="geometry"/>
                </mxCell>
                <mxCell id="94" value="&lt;b&gt;フォロー中/フォロワー一覧画面&lt;/b&gt;" style="text;html=1;align=center;verticalAlign=middle;resizable=0;points=[];autosize=1;strokeColor=none;fontColor=#5C5C5C;" parent="1" vertex="1">
                    <mxGeometry x="765" y="615" width="190" height="20" as="geometry"/>
                </mxCell>
                <mxCell id="96" value="「戻る」をクリック" style="text;html=1;align=center;verticalAlign=middle;resizable=0;points=[];autosize=1;strokeColor=none;fontColor=#5C5C5C;" parent="1" vertex="1">
                    <mxGeometry x="160" y="690" width="120" height="20" as="geometry"/>
                </mxCell>
                <mxCell id="97" value="" style="edgeStyle=segmentEdgeStyle;endArrow=classic;html=1;fontColor=#5C5C5C;strokeColor=#000000;fillColor=#21C0A5;" parent="1" edge="1">
                    <mxGeometry width="50" height="50" relative="1" as="geometry">
                        <mxPoint x="120" y="700" as="sourcePoint"/>
                        <mxPoint x="119.92999999999995" y="459.93" as="targetPoint"/>
                        <Array as="points">
                            <mxPoint x="30" y="700"/>
                            <mxPoint x="30" y="460"/>
                        </Array>
                    </mxGeometry>
                </mxCell>
                <mxCell id="101" value="" style="edgeStyle=segmentEdgeStyle;endArrow=classic;html=1;fontColor=#5C5C5C;strokeColor=#000000;fillColor=#21C0A5;entryX=1;entryY=0.5;entryDx=0;entryDy=0;" parent="1" target="63" edge="1">
                    <mxGeometry width="50" height="50" relative="1" as="geometry">
                        <mxPoint x="990" y="720" as="sourcePoint"/>
                        <mxPoint x="730" y="460" as="targetPoint"/>
                        <Array as="points">
                            <mxPoint x="990" y="670"/>
                            <mxPoint x="990" y="460"/>
                        </Array>
                    </mxGeometry>
                </mxCell>
                <mxCell id="105" value="&lt;font style=&quot;font-size: 11px&quot;&gt;「フォロワーページ」をクリック&lt;/font&gt;" style="rounded=1;whiteSpace=wrap;html=1;absoluteArcSize=1;arcSize=14;strokeWidth=2;sketch=0;fontColor=#5C5C5C;fillColor=#E6E6E6;" parent="1" vertex="1">
                    <mxGeometry x="760" y="690" width="200" height="40" as="geometry"/>
                </mxCell>
                <mxCell id="107" value="" style="endArrow=classic;html=1;fontColor=#5C5C5C;fillColor=#21C0A5;" parent="1" edge="1">
                    <mxGeometry width="50" height="50" relative="1" as="geometry">
                        <mxPoint x="219.32999999999998" y="520" as="sourcePoint"/>
                        <mxPoint x="219.32999999999998" y="600" as="targetPoint"/>
                    </mxGeometry>
                </mxCell>
                <mxCell id="108" value="" style="endArrow=classic;html=1;fontColor=#5C5C5C;fillColor=#21C0A5;" parent="1" edge="1">
                    <mxGeometry width="50" height="50" relative="1" as="geometry">
                        <mxPoint x="827" y="520" as="sourcePoint"/>
                        <mxPoint x="827" y="600" as="targetPoint"/>
                    </mxGeometry>
                </mxCell>
                <mxCell id="110" value="" style="line;strokeWidth=1;direction=south;html=1;perimeter=backbonePerimeter;points=[];outlineConnect=0;rounded=0;sketch=0;fontColor=#5C5C5C;fillColor=#E6E6E6;dashed=1;" parent="1" vertex="1">
                    <mxGeometry x="725" y="80" width="385" height="40" as="geometry"/>
                </mxCell>
                <mxCell id="112" value="" style="edgeStyle=segmentEdgeStyle;endArrow=classic;html=1;fontSize=11;fontColor=#5C5C5C;strokeColor=#000000;fillColor=#21C0A5;exitX=0;exitY=0.5;exitDx=0;exitDy=0;entryX=0;entryY=0.25;entryDx=0;entryDy=0;" parent="1" source="46" target="44" edge="1">
                    <mxGeometry width="50" height="50" relative="1" as="geometry">
                        <mxPoint x="390" y="440" as="sourcePoint"/>
                        <mxPoint x="100" y="260" as="targetPoint"/>
                        <Array as="points">
                            <mxPoint x="90" y="300"/>
                            <mxPoint x="90" y="250"/>
                        </Array>
                    </mxGeometry>
                </mxCell>
                <mxCell id="114" value="" style="edgeStyle=segmentEdgeStyle;endArrow=classic;html=1;fontSize=11;fontColor=#5C5C5C;strokeColor=#000000;fillColor=#21C0A5;exitX=0;exitY=0.5;exitDx=0;exitDy=0;entryX=0;entryY=0.25;entryDx=0;entryDy=0;" parent="1" edge="1">
                    <mxGeometry width="50" height="50" relative="1" as="geometry">
                        <mxPoint x="480" y="310" as="sourcePoint"/>
                        <mxPoint x="480" y="260" as="targetPoint"/>
                        <Array as="points">
                            <mxPoint x="450" y="310"/>
                            <mxPoint x="450" y="260"/>
                        </Array>
                    </mxGeometry>
                </mxCell>
                <mxCell id="115" value="失敗" style="text;html=1;align=center;verticalAlign=middle;resizable=0;points=[];autosize=1;strokeColor=none;fontColor=#5C5C5C;fontStyle=1" parent="1" vertex="1">
                    <mxGeometry x="414" y="270" width="40" height="20" as="geometry"/>
                </mxCell>
                <mxCell id="116" value="「食材一覧」をクリック" style="text;html=1;align=center;verticalAlign=middle;resizable=0;points=[];autosize=1;strokeColor=none;fontColor=#5C5C5C;" parent="1" vertex="1">
                    <mxGeometry x="1131" y="90" width="150" height="20" as="geometry"/>
                </mxCell>
                <mxCell id="117" value="「カテゴリ一覧」をクリック" style="text;html=1;align=center;verticalAlign=middle;resizable=0;points=[];autosize=1;strokeColor=none;fontColor=#5C5C5C;" parent="1" vertex="1">
                    <mxGeometry x="1330" y="90" width="170" height="20" as="geometry"/>
                </mxCell>
                <mxCell id="118" value="" style="line;strokeWidth=1;direction=south;html=1;perimeter=backbonePerimeter;points=[];outlineConnect=0;rounded=0;sketch=0;fontColor=#5C5C5C;fillColor=#E6E6E6;dashed=1;" parent="1" vertex="1">
                    <mxGeometry x="1110" y="80" width="10" height="40" as="geometry"/>
                </mxCell>
                <mxCell id="120" value="" style="line;strokeWidth=1;direction=south;html=1;perimeter=backbonePerimeter;points=[];outlineConnect=0;rounded=0;sketch=0;fontColor=#5C5C5C;fillColor=#E6E6E6;dashed=1;" parent="1" vertex="1">
                    <mxGeometry x="1310" y="80" width="10" height="40" as="geometry"/>
                </mxCell>
                <mxCell id="121" value="「投稿」をクリック" style="text;html=1;align=center;verticalAlign=middle;resizable=0;points=[];autosize=1;strokeColor=none;fontColor=#5C5C5C;" parent="1" vertex="1">
                    <mxGeometry x="960" y="90" width="120" height="20" as="geometry"/>
                </mxCell>
                <mxCell id="122" value="" style="endArrow=classic;html=1;fontColor=#5C5C5C;fillColor=#21C0A5;" parent="1" edge="1">
                    <mxGeometry width="50" height="50" relative="1" as="geometry">
                        <mxPoint x="826.5" y="120" as="sourcePoint"/>
                        <mxPoint x="827" y="439" as="targetPoint"/>
                    </mxGeometry>
                </mxCell>
                <mxCell id="95" value="「更新」をクリック" style="text;html=1;align=center;verticalAlign=middle;resizable=0;points=[];autosize=1;strokeColor=none;fontColor=#5C5C5C;" parent="1" vertex="1">
                    <mxGeometry x="160" y="650" width="120" height="20" as="geometry"/>
                </mxCell>
                <mxCell id="127" value="" style="endArrow=classic;html=1;" parent="1" edge="1">
                    <mxGeometry width="50" height="50" relative="1" as="geometry">
                        <mxPoint x="199" y="320" as="sourcePoint"/>
                        <mxPoint x="199" y="441" as="targetPoint"/>
                    </mxGeometry>
                </mxCell>
                <mxCell id="129" value="成功" style="text;html=1;align=center;verticalAlign=middle;resizable=0;points=[];autosize=1;strokeColor=none;fontColor=#5C5C5C;fontStyle=1" parent="1" vertex="1">
                    <mxGeometry x="205" y="330" width="40" height="20" as="geometry"/>
                </mxCell>
                <mxCell id="130" value="成功" style="text;html=1;align=center;verticalAlign=middle;resizable=0;points=[];autosize=1;strokeColor=none;fontColor=#5C5C5C;fontStyle=1" parent="1" vertex="1">
                    <mxGeometry x="580" y="330" width="40" height="20" as="geometry"/>
                </mxCell>
                <mxCell id="132" value="" style="endArrow=classic;html=1;exitX=1;exitY=0.5;exitDx=0;exitDy=0;entryX=0;entryY=0.75;entryDx=0;entryDy=0;" parent="1" source="88" target="63" edge="1">
                    <mxGeometry width="50" height="50" relative="1" as="geometry">
                        <mxPoint x="460" y="460" as="sourcePoint"/>
                        <mxPoint x="90" y="470" as="targetPoint"/>
                        <Array as="points">
                            <mxPoint x="360" y="700"/>
                            <mxPoint x="360" y="560"/>
                            <mxPoint x="90" y="560"/>
                            <mxPoint x="90" y="470"/>
                        </Array>
                    </mxGeometry>
                </mxCell>
                <mxCell id="134" value="" style="rounded=1;whiteSpace=wrap;html=1;absoluteArcSize=1;arcSize=14;strokeWidth=2;sketch=0;fontColor=#5C5C5C;fillColor=#00FFFF;" parent="1" vertex="1">
                    <mxGeometry x="920" y="240" width="200" height="40" as="geometry"/>
                </mxCell>
                <mxCell id="135" value="" style="rounded=1;whiteSpace=wrap;html=1;absoluteArcSize=1;arcSize=14;strokeWidth=2;sketch=0;fontColor=#5C5C5C;fillColor=#E6E6E6;" parent="1" vertex="1">
                    <mxGeometry x="920" y="320" width="200" height="40" as="geometry"/>
                </mxCell>
                <mxCell id="136" value="&lt;b&gt;投稿画面&lt;/b&gt;" style="text;html=1;align=center;verticalAlign=middle;resizable=0;points=[];autosize=1;strokeColor=none;fontColor=#5C5C5C;" parent="1" vertex="1">
                    <mxGeometry x="995" y="250" width="60" height="20" as="geometry"/>
                </mxCell>
                <mxCell id="137" value="「投稿する」をクリック" style="text;html=1;align=center;verticalAlign=middle;resizable=0;points=[];autosize=1;strokeColor=none;fontColor=#5C5C5C;" parent="1" vertex="1">
                    <mxGeometry x="940" y="330" width="150" height="20" as="geometry"/>
                </mxCell>
                <mxCell id="138" value="" style="endArrow=classic;html=1;fontColor=#5C5C5C;fillColor=#21C0A5;" parent="1" edge="1">
                    <mxGeometry width="50" height="50" relative="1" as="geometry">
                        <mxPoint x="1019.8299999999999" y="120" as="sourcePoint"/>
                        <mxPoint x="1019.3299999999999" y="238" as="targetPoint"/>
                    </mxGeometry>
                </mxCell>
                <mxCell id="139" value="" style="edgeStyle=segmentEdgeStyle;endArrow=classic;html=1;fontSize=11;fontColor=#5C5C5C;strokeColor=#000000;fillColor=#21C0A5;entryX=0;entryY=0.25;entryDx=0;entryDy=0;exitX=0;exitY=0.5;exitDx=0;exitDy=0;" parent="1" source="135" edge="1">
                    <mxGeometry width="50" height="50" relative="1" as="geometry">
                        <mxPoint x="890" y="340" as="sourcePoint"/>
                        <mxPoint x="920" y="259.93" as="targetPoint"/>
                        <Array as="points">
                            <mxPoint x="890" y="340"/>
                            <mxPoint x="890" y="260"/>
                        </Array>
                    </mxGeometry>
                </mxCell>
                <mxCell id="140" value="失敗" style="text;html=1;align=center;verticalAlign=middle;resizable=0;points=[];autosize=1;strokeColor=none;fontColor=#5C5C5C;fontStyle=1" parent="1" vertex="1">
                    <mxGeometry x="850" y="290" width="40" height="20" as="geometry"/>
                </mxCell>
                <mxCell id="142" value="成功" style="text;html=1;align=center;verticalAlign=middle;resizable=0;points=[];autosize=1;strokeColor=none;fontColor=#5C5C5C;fontStyle=1" parent="1" vertex="1">
                    <mxGeometry x="1030" y="360" width="40" height="20" as="geometry"/>
                </mxCell>
                <mxCell id="145" value="" style="rounded=1;whiteSpace=wrap;html=1;absoluteArcSize=1;arcSize=14;strokeWidth=2;sketch=0;fontColor=#5C5C5C;fillColor=#E6E6E6;" parent="1" vertex="1">
                    <mxGeometry x="920" y="280" width="200" height="40" as="geometry"/>
                </mxCell>
                <mxCell id="146" value="「戻る」をクリック" style="text;html=1;align=center;verticalAlign=middle;resizable=0;points=[];autosize=1;strokeColor=none;fontColor=#5C5C5C;" parent="1" vertex="1">
                    <mxGeometry x="960" y="290" width="120" height="20" as="geometry"/>
                </mxCell>
                <mxCell id="151" value="" style="rounded=1;whiteSpace=wrap;html=1;absoluteArcSize=1;arcSize=14;strokeWidth=2;sketch=0;fontColor=#5C5C5C;fillColor=#00FFFF;" parent="1" vertex="1">
                    <mxGeometry x="1075" y="520" width="200" height="40" as="geometry"/>
                </mxCell>
                <mxCell id="152" value="「食材項目」をクリック" style="rounded=1;whiteSpace=wrap;html=1;absoluteArcSize=1;arcSize=14;strokeWidth=2;sketch=0;fontColor=#5C5C5C;fillColor=#E6E6E6;" parent="1" vertex="1">
                    <mxGeometry x="1075" y="600" width="200" height="40" as="geometry"/>
                </mxCell>
                <mxCell id="154" value="&lt;b&gt;食材一覧画面&lt;/b&gt;" style="text;html=1;align=center;verticalAlign=middle;resizable=0;points=[];autosize=1;strokeColor=none;fontColor=#5C5C5C;" parent="1" vertex="1">
                    <mxGeometry x="1136" y="530" width="90" height="20" as="geometry"/>
                </mxCell>
                <mxCell id="160" value="" style="rounded=1;whiteSpace=wrap;html=1;absoluteArcSize=1;arcSize=14;strokeWidth=2;sketch=0;fontColor=#5C5C5C;fillColor=#00FFFF;" parent="1" vertex="1">
                    <mxGeometry x="390" y="600" width="200" height="40" as="geometry"/>
                </mxCell>
                <mxCell id="161" value="&lt;b&gt;投稿/お気に入り一覧画面&lt;/b&gt;" style="text;html=1;align=center;verticalAlign=middle;resizable=0;points=[];autosize=1;strokeColor=none;fontColor=#5C5C5C;" parent="1" vertex="1">
                    <mxGeometry x="415" y="610" width="150" height="20" as="geometry"/>
                </mxCell>
                <mxCell id="163" value="" style="rounded=1;whiteSpace=wrap;html=1;absoluteArcSize=1;arcSize=14;strokeWidth=2;sketch=0;fontColor=#5C5C5C;fillColor=#E6E6E6;" parent="1" vertex="1">
                    <mxGeometry x="320" y="480" width="200" height="40" as="geometry"/>
                </mxCell>
                <mxCell id="164" value="&lt;font style=&quot;font-size: 10px&quot;&gt;「投稿一覧」「お気に入り」をクリック&lt;br&gt;(切替)&lt;/font&gt;" style="text;html=1;align=center;verticalAlign=middle;resizable=0;points=[];autosize=1;strokeColor=none;fontColor=#5C5C5C;" parent="1" vertex="1">
                    <mxGeometry x="320" y="485" width="200" height="30" as="geometry"/>
                </mxCell>
                <mxCell id="165" value="" style="endArrow=classic;html=1;fontColor=#5C5C5C;fillColor=#21C0A5;" parent="1" edge="1">
                    <mxGeometry width="50" height="50" relative="1" as="geometry">
                        <mxPoint x="440" y="520" as="sourcePoint"/>
                        <mxPoint x="440" y="600" as="targetPoint"/>
                    </mxGeometry>
                </mxCell>
                <mxCell id="166" value="" style="endArrow=none;html=1;exitX=0;exitY=0.5;exitDx=0;exitDy=0;entryX=1;entryY=0.5;entryDx=0;entryDy=0;" parent="1" target="86" edge="1">
                    <mxGeometry width="50" height="50" relative="1" as="geometry">
                        <mxPoint x="360" y="660" as="sourcePoint"/>
                        <mxPoint x="330" y="660" as="targetPoint"/>
                    </mxGeometry>
                </mxCell>
                <mxCell id="167" value="" style="endArrow=none;html=1;exitX=0.5;exitY=1;exitDx=0;exitDy=0;" parent="1" source="135" edge="1">
                    <mxGeometry width="50" height="50" relative="1" as="geometry">
                        <mxPoint x="1260" y="305" as="sourcePoint"/>
                        <mxPoint x="1140" y="400" as="targetPoint"/>
                        <Array as="points">
                            <mxPoint x="1020" y="400"/>
                            <mxPoint x="1180" y="400"/>
                        </Array>
                    </mxGeometry>
                </mxCell>
                <mxCell id="171" value="&lt;font style=&quot;font-size: 11px&quot;&gt;「戻る」をクリック&lt;/font&gt;" style="rounded=1;whiteSpace=wrap;html=1;absoluteArcSize=1;arcSize=14;strokeWidth=2;sketch=0;fontColor=#5C5C5C;fillColor=#E6E6E6;" parent="1" vertex="1">
                    <mxGeometry x="1075" y="560" width="200" height="40" as="geometry"/>
                </mxCell>
                <mxCell id="173" value="" style="endArrow=classic;html=1;fontColor=#5C5C5C;fillColor=#21C0A5;entryX=0.5;entryY=0;entryDx=0;entryDy=0;" parent="1" target="174" edge="1">
                    <mxGeometry width="50" height="50" relative="1" as="geometry">
                        <mxPoint x="1181.1599999999999" y="640" as="sourcePoint"/>
                        <mxPoint x="1180.33" y="720" as="targetPoint"/>
                    </mxGeometry>
                </mxCell>
                <mxCell id="174" value="" style="rounded=1;whiteSpace=wrap;html=1;absoluteArcSize=1;arcSize=14;strokeWidth=2;sketch=0;fontColor=#5C5C5C;fillColor=#00FFFF;" parent="1" vertex="1">
                    <mxGeometry x="1080" y="680" width="200" height="40" as="geometry"/>
                </mxCell>
                <mxCell id="175" value="&lt;b&gt;選択食材レシピ一覧&lt;/b&gt;" style="text;html=1;align=center;verticalAlign=middle;resizable=0;points=[];autosize=1;strokeColor=none;fontColor=#5C5C5C;" parent="1" vertex="1">
                    <mxGeometry x="1121" y="690" width="120" height="20" as="geometry"/>
                </mxCell>
                <mxCell id="176" value="&lt;font style=&quot;font-size: 11px&quot;&gt;「レシピ詳細」をクリック&lt;/font&gt;" style="rounded=1;whiteSpace=wrap;html=1;absoluteArcSize=1;arcSize=14;strokeWidth=2;sketch=0;fontColor=#5C5C5C;fillColor=#E6E6E6;" parent="1" vertex="1">
                    <mxGeometry x="1080" y="760" width="200" height="40" as="geometry"/>
                </mxCell>
                <mxCell id="178" value="" style="rounded=1;whiteSpace=wrap;html=1;absoluteArcSize=1;arcSize=14;strokeWidth=2;sketch=0;fontColor=#5C5C5C;fillColor=#00FFFF;" parent="1" vertex="1">
                    <mxGeometry x="1320" y="240" width="200" height="40" as="geometry"/>
                </mxCell>
                <mxCell id="179" value="&lt;font style=&quot;font-size: 11px&quot;&gt;「戻る」をクリック&lt;/font&gt;" style="rounded=1;whiteSpace=wrap;html=1;absoluteArcSize=1;arcSize=14;strokeWidth=2;sketch=0;fontColor=#5C5C5C;fillColor=#E6E6E6;" parent="1" vertex="1">
                    <mxGeometry x="1320" y="280" width="200" height="40" as="geometry"/>
                </mxCell>
                <mxCell id="180" value="&lt;font style=&quot;font-size: 11px&quot;&gt;「カテゴリ項目」をクリック&lt;/font&gt;" style="rounded=1;whiteSpace=wrap;html=1;absoluteArcSize=1;arcSize=14;strokeWidth=2;sketch=0;fontColor=#5C5C5C;fillColor=#E6E6E6;" parent="1" vertex="1">
                    <mxGeometry x="1320" y="320" width="200" height="40" as="geometry"/>
                </mxCell>
                <mxCell id="181" value="&lt;b&gt;カテゴリ一覧画面&lt;/b&gt;" style="text;html=1;align=center;verticalAlign=middle;resizable=0;points=[];autosize=1;strokeColor=none;fontColor=#5C5C5C;" parent="1" vertex="1">
                    <mxGeometry x="1365" y="250" width="110" height="20" as="geometry"/>
                </mxCell>
                <mxCell id="182" value="" style="endArrow=classic;html=1;exitX=1;exitY=0.5;exitDx=0;exitDy=0;entryX=1;entryY=0.5;entryDx=0;entryDy=0;" parent="1" source="171" target="35" edge="1">
                    <mxGeometry width="50" height="50" relative="1" as="geometry">
                        <mxPoint x="960" y="530" as="sourcePoint"/>
                        <mxPoint x="1560" y="50" as="targetPoint"/>
                        <Array as="points">
                            <mxPoint x="1290" y="580"/>
                            <mxPoint x="1290" y="400"/>
                            <mxPoint x="1140" y="400"/>
                            <mxPoint x="1140" y="160"/>
                            <mxPoint x="2000" y="160"/>
                            <mxPoint x="2000" y="60"/>
                        </Array>
                    </mxGeometry>
                </mxCell>
                <mxCell id="183" value="" style="endArrow=none;html=1;exitX=1;exitY=0.5;exitDx=0;exitDy=0;" parent="1" source="145" edge="1">
                    <mxGeometry width="50" height="50" relative="1" as="geometry">
                        <mxPoint x="1150" y="305" as="sourcePoint"/>
                        <mxPoint x="1140" y="300" as="targetPoint"/>
                    </mxGeometry>
                </mxCell>
                <mxCell id="184" value="" style="endArrow=classic;html=1;fontColor=#5C5C5C;fillColor=#21C0A5;" parent="1" edge="1">
                    <mxGeometry width="50" height="50" relative="1" as="geometry">
                        <mxPoint x="1414.83" y="120" as="sourcePoint"/>
                        <mxPoint x="1414.33" y="238" as="targetPoint"/>
                    </mxGeometry>
                </mxCell>
                <mxCell id="185" value="" style="endArrow=none;html=1;exitX=1;exitY=0.5;exitDx=0;exitDy=0;" parent="1" source="179" edge="1">
                    <mxGeometry width="50" height="50" relative="1" as="geometry">
                        <mxPoint x="1534" y="330" as="sourcePoint"/>
                        <mxPoint x="2000" y="120" as="targetPoint"/>
                        <Array as="points">
                            <mxPoint x="1760" y="300"/>
                            <mxPoint x="2000" y="300"/>
                        </Array>
                    </mxGeometry>
                </mxCell>
                <mxCell id="186" value="" style="endArrow=classic;html=1;fontColor=#5C5C5C;fillColor=#21C0A5;" parent="1" edge="1">
                    <mxGeometry width="50" height="50" relative="1" as="geometry">
                        <mxPoint x="1420.1599999999999" y="360" as="sourcePoint"/>
                        <mxPoint x="1419" y="520" as="targetPoint"/>
                    </mxGeometry>
                </mxCell>
                <mxCell id="187" value="" style="rounded=1;whiteSpace=wrap;html=1;absoluteArcSize=1;arcSize=14;strokeWidth=2;sketch=0;fontColor=#5C5C5C;fillColor=#00FFFF;" parent="1" vertex="1">
                    <mxGeometry x="1320" y="520" width="200" height="40" as="geometry"/>
                </mxCell>
                <mxCell id="188" value="&lt;font style=&quot;font-size: 11px&quot;&gt;「レシピ」をクリック&lt;/font&gt;" style="rounded=1;whiteSpace=wrap;html=1;absoluteArcSize=1;arcSize=14;strokeWidth=2;sketch=0;fontColor=#5C5C5C;fillColor=#E6E6E6;" parent="1" vertex="1">
                    <mxGeometry x="1320" y="600" width="200" height="40" as="geometry"/>
                </mxCell>
                <mxCell id="189" value="&lt;b&gt;カテゴリー別レシピ一覧&lt;/b&gt;" style="text;html=1;align=center;verticalAlign=middle;resizable=0;points=[];autosize=1;strokeColor=none;fontColor=#5C5C5C;" parent="1" vertex="1">
                    <mxGeometry x="1340" y="530" width="150" height="20" as="geometry"/>
                </mxCell>
                <mxCell id="191" value="&lt;font style=&quot;font-size: 11px&quot;&gt;「詳細」をクリック&lt;/font&gt;" style="rounded=1;whiteSpace=wrap;html=1;absoluteArcSize=1;arcSize=14;strokeWidth=2;sketch=0;fontColor=#5C5C5C;fillColor=#E6E6E6;" parent="1" vertex="1">
                    <mxGeometry x="390" y="680" width="200" height="40" as="geometry"/>
                </mxCell>
                <mxCell id="192" value="" style="rounded=1;whiteSpace=wrap;html=1;absoluteArcSize=1;arcSize=14;strokeWidth=2;sketch=0;fontColor=#5C5C5C;fillColor=#00FFFF;" parent="1" vertex="1">
                    <mxGeometry x="800" y="880" width="200" height="40" as="geometry"/>
                </mxCell>
                <mxCell id="193" value="&lt;b&gt;レシピ詳細画面&lt;/b&gt;" style="text;html=1;align=center;verticalAlign=middle;resizable=0;points=[];autosize=1;strokeColor=none;fontColor=#5C5C5C;" parent="1" vertex="1">
                    <mxGeometry x="850" y="890" width="100" height="20" as="geometry"/>
                </mxCell>
                <mxCell id="194" value="&lt;font style=&quot;font-size: 11px&quot;&gt;「戻る」をクリック&lt;/font&gt;" style="rounded=1;whiteSpace=wrap;html=1;absoluteArcSize=1;arcSize=14;strokeWidth=2;sketch=0;fontColor=#5C5C5C;fillColor=#E6E6E6;" parent="1" vertex="1">
                    <mxGeometry x="800" y="920" width="200" height="40" as="geometry"/>
                </mxCell>
                <mxCell id="196" value="" style="edgeStyle=segmentEdgeStyle;endArrow=classic;html=1;fontColor=#5C5C5C;strokeColor=#000000;fillColor=#21C0A5;exitX=1;exitY=0.5;exitDx=0;exitDy=0;entryX=1;entryY=0.5;entryDx=0;entryDy=0;" parent="1" source="194" target="174" edge="1">
                    <mxGeometry width="50" height="50" relative="1" as="geometry">
                        <mxPoint x="1185" y="940" as="sourcePoint"/>
                        <mxPoint x="1160" y="740" as="targetPoint"/>
                        <Array as="points">
                            <mxPoint x="1300" y="940"/>
                            <mxPoint x="1300" y="700"/>
                        </Array>
                    </mxGeometry>
                </mxCell>
                <mxCell id="212" value="" style="endArrow=none;html=1;" parent="1" edge="1">
                    <mxGeometry width="50" height="50" relative="1" as="geometry">
                        <mxPoint x="990" y="720" as="sourcePoint"/>
                        <mxPoint x="960" y="720" as="targetPoint"/>
                        <Array as="points">
                            <mxPoint x="990" y="720"/>
                        </Array>
                    </mxGeometry>
                </mxCell>
                <mxCell id="216" value="" style="rounded=1;whiteSpace=wrap;html=1;absoluteArcSize=1;arcSize=14;strokeWidth=2;sketch=0;fontColor=#5C5C5C;fillColor=#E6E6E6;" parent="1" vertex="1">
                    <mxGeometry x="720" y="480" width="200" height="40" as="geometry"/>
                </mxCell>
                <mxCell id="217" value="「フォロー/フォロワー」をクリック" style="text;html=1;align=center;verticalAlign=middle;resizable=0;points=[];autosize=1;strokeColor=none;fontColor=#5C5C5C;fontSize=11;" parent="1" vertex="1">
                    <mxGeometry x="720" y="490" width="190" height="20" as="geometry"/>
                </mxCell>
                <mxCell id="218" value="" style="endArrow=classic;html=1;fontColor=#5C5C5C;fillColor=#21C0A5;exitX=0.5;exitY=1;exitDx=0;exitDy=0;" parent="1" source="176" edge="1">
                    <mxGeometry width="50" height="50" relative="1" as="geometry">
                        <mxPoint x="1181.1599999999999" y="820" as="sourcePoint"/>
                        <mxPoint x="960" y="880" as="targetPoint"/>
                        <Array as="points">
                            <mxPoint x="1181" y="860"/>
                            <mxPoint x="960" y="860"/>
                        </Array>
                    </mxGeometry>
                </mxCell>
                <mxCell id="219" value="" style="endArrow=classic;html=1;exitX=0.486;exitY=1.085;exitDx=0;exitDy=0;exitPerimeter=0;entryX=0.628;entryY=0.022;entryDx=0;entryDy=0;entryPerimeter=0;" parent="1" source="29" target="151" edge="1">
                    <mxGeometry width="50" height="50" relative="1" as="geometry">
                        <mxPoint x="1250" y="530" as="sourcePoint"/>
                        <mxPoint x="1300" y="480" as="targetPoint"/>
                    </mxGeometry>
                </mxCell>
                <mxCell id="221" value="" style="endArrow=classic;html=1;fontColor=#5C5C5C;fillColor=#21C0A5;" parent="1" edge="1">
                    <mxGeometry width="50" height="50" relative="1" as="geometry">
                        <mxPoint x="579.3299999999999" y="320" as="sourcePoint"/>
                        <mxPoint x="580" y="440" as="targetPoint"/>
                    </mxGeometry>
                </mxCell>
                <mxCell id="222" value="" style="endArrow=classic;html=1;exitX=0.804;exitY=1.088;exitDx=0;exitDy=0;exitPerimeter=0;" parent="1" source="89" edge="1">
                    <mxGeometry width="50" height="50" relative="1" as="geometry">
                        <mxPoint x="740" y="950" as="sourcePoint"/>
                        <mxPoint x="880" y="877" as="targetPoint"/>
                        <Array as="points">
                            <mxPoint x="681" y="800"/>
                            <mxPoint x="780" y="800"/>
                            <mxPoint x="880" y="800"/>
                        </Array>
                    </mxGeometry>
                </mxCell>
                <mxCell id="224" value="" style="endArrow=none;html=1;" parent="1" edge="1">
                    <mxGeometry width="50" height="50" relative="1" as="geometry">
                        <mxPoint x="1420" y="860" as="sourcePoint"/>
                        <mxPoint x="1170" y="860" as="targetPoint"/>
                        <Array as="points">
                            <mxPoint x="1420" y="860"/>
                        </Array>
                    </mxGeometry>
                </mxCell>
                <mxCell id="225" value="" style="endArrow=classic;html=1;exitX=1;exitY=0.5;exitDx=0;exitDy=0;entryX=1;entryY=0.25;entryDx=0;entryDy=0;" parent="1" source="194" target="187" edge="1">
                    <mxGeometry width="50" height="50" relative="1" as="geometry">
                        <mxPoint x="980" y="700" as="sourcePoint"/>
                        <mxPoint x="1600" y="520" as="targetPoint"/>
                        <Array as="points">
                            <mxPoint x="1600" y="940"/>
                            <mxPoint x="1600" y="530"/>
                        </Array>
                    </mxGeometry>
                </mxCell>
                <mxCell id="227" value="" style="endArrow=none;html=1;exitX=1;exitY=0.5;exitDx=0;exitDy=0;" parent="1" source="194" edge="1">
                    <mxGeometry width="50" height="50" relative="1" as="geometry">
                        <mxPoint x="1035" y="940" as="sourcePoint"/>
                        <mxPoint x="980" y="720" as="targetPoint"/>
                        <Array as="points">
                            <mxPoint x="1040" y="940"/>
                            <mxPoint x="1040" y="880"/>
                            <mxPoint x="1040" y="720"/>
                        </Array>
                    </mxGeometry>
                </mxCell>
                <mxCell id="228" value="&lt;font style=&quot;font-size: 11px&quot;&gt;「編集」をクリック&lt;/font&gt;" style="rounded=1;whiteSpace=wrap;html=1;absoluteArcSize=1;arcSize=14;strokeWidth=2;sketch=0;fontColor=#5C5C5C;fillColor=#E6E6E6;" parent="1" vertex="1">
                    <mxGeometry x="800" y="960" width="200" height="40" as="geometry"/>
                </mxCell>
                <mxCell id="229" value="" style="rounded=1;whiteSpace=wrap;html=1;absoluteArcSize=1;arcSize=14;strokeWidth=2;sketch=0;fontColor=#5C5C5C;fillColor=#00FFFF;" parent="1" vertex="1">
                    <mxGeometry x="240" y="960" width="200" height="40" as="geometry"/>
                </mxCell>
                <mxCell id="230" value="&lt;font style=&quot;font-size: 11px&quot;&gt;「戻る」をクリック&lt;/font&gt;" style="rounded=1;whiteSpace=wrap;html=1;absoluteArcSize=1;arcSize=14;strokeWidth=2;sketch=0;fontColor=#5C5C5C;fillColor=#E6E6E6;" parent="1" vertex="1">
                    <mxGeometry x="240" y="1000" width="200" height="40" as="geometry"/>
                </mxCell>
                <mxCell id="231" value="&lt;font style=&quot;font-size: 11px&quot;&gt;「完了」をクリック&lt;/font&gt;" style="rounded=1;whiteSpace=wrap;html=1;absoluteArcSize=1;arcSize=14;strokeWidth=2;sketch=0;fontColor=#5C5C5C;fillColor=#E6E6E6;" parent="1" vertex="1">
                    <mxGeometry x="240" y="1040" width="200" height="40" as="geometry"/>
                </mxCell>
                <mxCell id="232" value="" style="edgeStyle=segmentEdgeStyle;endArrow=classic;html=1;fontSize=11;fontColor=#5C5C5C;strokeColor=#000000;fillColor=#21C0A5;exitX=0;exitY=0.5;exitDx=0;exitDy=0;entryX=0;entryY=0.5;entryDx=0;entryDy=0;" parent="1" target="229" edge="1">
                    <mxGeometry width="50" height="50" relative="1" as="geometry">
                        <mxPoint x="235" y="1070" as="sourcePoint"/>
                        <mxPoint x="205" y="970" as="targetPoint"/>
                        <Array as="points">
                            <mxPoint x="205" y="1070"/>
                            <mxPoint x="205" y="980"/>
                        </Array>
                    </mxGeometry>
                </mxCell>
                <mxCell id="234" value="失敗" style="text;html=1;align=center;verticalAlign=middle;resizable=0;points=[];autosize=1;strokeColor=none;fontColor=#5C5C5C;fontStyle=1" parent="1" vertex="1">
                    <mxGeometry x="50" y="270" width="40" height="20" as="geometry"/>
                </mxCell>
                <mxCell id="235" value="失敗" style="text;html=1;align=center;verticalAlign=middle;resizable=0;points=[];autosize=1;strokeColor=none;fontColor=#5C5C5C;fontStyle=1" parent="1" vertex="1">
                    <mxGeometry x="165" y="1010" width="40" height="20" as="geometry"/>
                </mxCell>
                <mxCell id="236" value="" style="endArrow=none;html=1;exitX=0.5;exitY=1;exitDx=0;exitDy=0;" parent="1" source="191" edge="1">
                    <mxGeometry width="50" height="50" relative="1" as="geometry">
                        <mxPoint x="390" y="700" as="sourcePoint"/>
                        <mxPoint x="690" y="800" as="targetPoint"/>
                        <Array as="points">
                            <mxPoint x="490" y="800"/>
                        </Array>
                    </mxGeometry>
                </mxCell>
                <mxCell id="238" value="&lt;b&gt;投稿編集画面&lt;/b&gt;" style="text;html=1;align=center;verticalAlign=middle;resizable=0;points=[];autosize=1;strokeColor=none;fontColor=#5C5C5C;" parent="1" vertex="1">
                    <mxGeometry x="295" y="970" width="90" height="20" as="geometry"/>
                </mxCell>
                <mxCell id="239" value="" style="endArrow=classic;html=1;exitX=0;exitY=0.5;exitDx=0;exitDy=0;entryX=1;entryY=0.5;entryDx=0;entryDy=0;" parent="1" source="228" target="229" edge="1">
                    <mxGeometry width="50" height="50" relative="1" as="geometry">
                        <mxPoint x="390" y="700" as="sourcePoint"/>
                        <mxPoint x="440" y="650" as="targetPoint"/>
                    </mxGeometry>
                </mxCell>
                <mxCell id="240" value="" style="endArrow=classic;html=1;exitX=1;exitY=0.5;exitDx=0;exitDy=0;entryX=0;entryY=0.5;entryDx=0;entryDy=0;" parent="1" source="231" target="192" edge="1">
                    <mxGeometry width="50" height="50" relative="1" as="geometry">
                        <mxPoint x="480" y="1070" as="sourcePoint"/>
                        <mxPoint x="520" y="910" as="targetPoint"/>
                        <Array as="points">
                            <mxPoint x="520" y="1060"/>
                            <mxPoint x="520" y="900"/>
                        </Array>
                    </mxGeometry>
                </mxCell>
                <mxCell id="242" value="" style="edgeStyle=segmentEdgeStyle;endArrow=classic;html=1;fontSize=11;fontColor=#5C5C5C;strokeColor=#000000;fillColor=#21C0A5;exitX=0;exitY=0.5;exitDx=0;exitDy=0;entryX=0;entryY=0.25;entryDx=0;entryDy=0;" parent="1" edge="1">
                    <mxGeometry width="50" height="50" relative="1" as="geometry">
                        <mxPoint x="120" y="665" as="sourcePoint"/>
                        <mxPoint x="120" y="615" as="targetPoint"/>
                        <Array as="points">
                            <mxPoint x="90" y="665"/>
                            <mxPoint x="90" y="615"/>
                        </Array>
                    </mxGeometry>
                </mxCell>
                <mxCell id="243" value="失敗" style="text;html=1;align=center;verticalAlign=middle;resizable=0;points=[];autosize=1;strokeColor=none;fontColor=#5C5C5C;fontStyle=1" parent="1" vertex="1">
                    <mxGeometry x="50" y="635" width="40" height="20" as="geometry"/>
                </mxCell>
                <mxCell id="245" value="" style="line;strokeWidth=1;direction=south;html=1;perimeter=backbonePerimeter;points=[];outlineConnect=0;rounded=0;sketch=0;fontColor=#5C5C5C;fillColor=#E6E6E6;dashed=1;" parent="1" vertex="1">
                    <mxGeometry x="1510" y="80" width="10" height="40" as="geometry"/>
                </mxCell>
                <mxCell id="246" value="「詳細」をクリック" style="text;html=1;align=center;verticalAlign=middle;resizable=0;points=[];autosize=1;strokeColor=none;fontColor=#5C5C5C;" parent="1" vertex="1">
                    <mxGeometry x="1550" y="90" width="120" height="20" as="geometry"/>
                </mxCell>
                <mxCell id="247" value="" style="endArrow=none;html=1;exitX=0.802;exitY=1.01;exitDx=0;exitDy=0;exitPerimeter=0;" parent="1" source="29" edge="1">
                    <mxGeometry width="50" height="50" relative="1" as="geometry">
                        <mxPoint x="1190" y="580" as="sourcePoint"/>
                        <mxPoint x="1420" y="860" as="targetPoint"/>
                        <Array as="points">
                            <mxPoint x="1640" y="860"/>
                        </Array>
                    </mxGeometry>
                </mxCell>
                <mxCell id="250" value="&lt;font style=&quot;font-size: 11px&quot;&gt;「編集」をクリック&lt;/font&gt;" style="rounded=1;whiteSpace=wrap;html=1;absoluteArcSize=1;arcSize=14;strokeWidth=2;sketch=0;fontColor=#5C5C5C;fillColor=#E6E6E6;" parent="1" vertex="1">
                    <mxGeometry x="390" y="640" width="200" height="40" as="geometry"/>
                </mxCell>
                <mxCell id="251" value="" style="endArrow=classic;html=1;exitX=1;exitY=0.5;exitDx=0;exitDy=0;entryX=0.591;entryY=-0.078;entryDx=0;entryDy=0;entryPerimeter=0;" parent="1" source="250" target="229" edge="1">
                    <mxGeometry width="50" height="50" relative="1" as="geometry">
                        <mxPoint x="660" y="690" as="sourcePoint"/>
                        <mxPoint x="360" y="840" as="targetPoint"/>
                        <Array as="points">
                            <mxPoint x="640" y="660"/>
                            <mxPoint x="640" y="840"/>
                            <mxPoint x="358" y="840"/>
                        </Array>
                    </mxGeometry>
                </mxCell>
                <mxCell id="252" value="&lt;font style=&quot;font-size: 11px&quot;&gt;「戻る」をクリック&lt;/font&gt;" style="rounded=1;whiteSpace=wrap;html=1;absoluteArcSize=1;arcSize=14;strokeWidth=2;sketch=0;fontColor=#5C5C5C;fillColor=#E6E6E6;" parent="1" vertex="1">
                    <mxGeometry x="1320" y="560" width="200" height="40" as="geometry"/>
                </mxCell>
                <mxCell id="253" value="" style="endArrow=classic;html=1;exitX=1;exitY=0.5;exitDx=0;exitDy=0;entryX=1;entryY=0.25;entryDx=0;entryDy=0;" parent="1" source="252" target="178" edge="1">
                    <mxGeometry width="50" height="50" relative="1" as="geometry">
                        <mxPoint x="1160" y="600" as="sourcePoint"/>
                        <mxPoint x="1560" y="250" as="targetPoint"/>
                        <Array as="points">
                            <mxPoint x="1560" y="580"/>
                            <mxPoint x="1560" y="250"/>
                        </Array>
                    </mxGeometry>
                </mxCell>
                <mxCell id="254" value="&lt;font style=&quot;font-size: 11px&quot;&gt;「食材一覧へ戻る」をクリック&lt;/font&gt;" style="rounded=1;whiteSpace=wrap;html=1;absoluteArcSize=1;arcSize=14;strokeWidth=2;sketch=0;fontColor=#5C5C5C;fillColor=#E6E6E6;" parent="1" vertex="1">
                    <mxGeometry x="1080" y="720" width="200" height="40" as="geometry"/>
                </mxCell>
                <mxCell id="255" value="" style="endArrow=classic;html=1;exitX=0;exitY=0.5;exitDx=0;exitDy=0;" parent="1" source="254" edge="1">
                    <mxGeometry width="50" height="50" relative="1" as="geometry">
                        <mxPoint x="1160" y="600" as="sourcePoint"/>
                        <mxPoint x="1080" y="530" as="targetPoint"/>
                        <Array as="points">
                            <mxPoint x="1060" y="740"/>
                            <mxPoint x="1060" y="540"/>
                        </Array>
                    </mxGeometry>
                </mxCell>
                <mxCell id="256" value="" style="endArrow=none;html=1;exitX=1;exitY=0.5;exitDx=0;exitDy=0;" parent="1" source="230" edge="1">
                    <mxGeometry width="50" height="50" relative="1" as="geometry">
                        <mxPoint x="720" y="600" as="sourcePoint"/>
                        <mxPoint x="520" y="1020" as="targetPoint"/>
                    </mxGeometry>
                </mxCell>
                <mxCell id="259" value="" style="endArrow=none;html=1;exitX=1;exitY=0.5;exitDx=0;exitDy=0;" parent="1" source="91" edge="1">
                    <mxGeometry width="50" height="50" relative="1" as="geometry">
                        <mxPoint x="780" y="600" as="sourcePoint"/>
                        <mxPoint x="990" y="670" as="targetPoint"/>
                    </mxGeometry>
                </mxCell>
                <mxCell id="260" value="" style="endArrow=none;html=1;exitX=1;exitY=0.5;exitDx=0;exitDy=0;" parent="1" source="188" edge="1">
                    <mxGeometry width="50" height="50" relative="1" as="geometry">
                        <mxPoint x="1000" y="720" as="sourcePoint"/>
                        <mxPoint x="1560" y="860" as="targetPoint"/>
                        <Array as="points">
                            <mxPoint x="1560" y="620"/>
                        </Array>
                    </mxGeometry>
                </mxCell>
                <mxCell id="261" value="" style="endArrow=classic;html=1;fontColor=#5C5C5C;fillColor=#21C0A5;entryX=0.5;entryY=0;entryDx=0;entryDy=0;" parent="1" edge="1">
                    <mxGeometry width="50" height="50" relative="1" as="geometry">
                        <mxPoint x="1420.4899999999998" y="680" as="sourcePoint"/>
                        <mxPoint x="1419.33" y="720" as="targetPoint"/>
                    </mxGeometry>
                </mxCell>
                <mxCell id="262" value="&lt;font style=&quot;font-size: 11px&quot;&gt;「もっとみる」をクリック&lt;/font&gt;" style="rounded=1;whiteSpace=wrap;html=1;absoluteArcSize=1;arcSize=14;strokeWidth=2;sketch=0;fontColor=#5C5C5C;fillColor=#E6E6E6;" parent="1" vertex="1">
                    <mxGeometry x="1320" y="640" width="200" height="40" as="geometry"/>
                </mxCell>
                <mxCell id="263" value="" style="rounded=1;whiteSpace=wrap;html=1;absoluteArcSize=1;arcSize=14;strokeWidth=2;sketch=0;fontColor=#5C5C5C;fillColor=#00FFFF;" parent="1" vertex="1">
                    <mxGeometry x="1320" y="720" width="200" height="40" as="geometry"/>
                </mxCell>
                <mxCell id="264" value="&lt;b&gt;選択カテゴリレシピ一覧&lt;/b&gt;" style="text;html=1;align=center;verticalAlign=middle;resizable=0;points=[];autosize=1;strokeColor=none;fontColor=#5C5C5C;" parent="1" vertex="1">
                    <mxGeometry x="1345" y="730" width="150" height="20" as="geometry"/>
                </mxCell>
                <mxCell id="265" value="&lt;font style=&quot;font-size: 11px&quot;&gt;「カテゴリ一覧へ戻る」をクリック&lt;/font&gt;" style="rounded=1;whiteSpace=wrap;html=1;absoluteArcSize=1;arcSize=14;strokeWidth=2;sketch=0;fontColor=#5C5C5C;fillColor=#E6E6E6;" parent="1" vertex="1">
                    <mxGeometry x="1320" y="760" width="200" height="40" as="geometry"/>
                </mxCell>
                <mxCell id="266" value="&lt;font style=&quot;font-size: 11px&quot;&gt;「詳細」をクリック&lt;/font&gt;" style="rounded=1;whiteSpace=wrap;html=1;absoluteArcSize=1;arcSize=14;strokeWidth=2;sketch=0;fontColor=#5C5C5C;fillColor=#E6E6E6;" parent="1" vertex="1">
                    <mxGeometry x="1320" y="800" width="200" height="40" as="geometry"/>
                </mxCell>
                <mxCell id="267" value="" style="endArrow=none;html=1;exitX=0.5;exitY=1;exitDx=0;exitDy=0;" parent="1" source="266" edge="1">
                    <mxGeometry width="50" height="50" relative="1" as="geometry">
                        <mxPoint x="1000" y="720" as="sourcePoint"/>
                        <mxPoint x="1420" y="860" as="targetPoint"/>
                    </mxGeometry>
                </mxCell>
                <mxCell id="268" value="" style="endArrow=none;html=1;exitX=1;exitY=0.5;exitDx=0;exitDy=0;" parent="1" source="265" edge="1">
                    <mxGeometry width="50" height="50" relative="1" as="geometry">
                        <mxPoint x="1000" y="720" as="sourcePoint"/>
                        <mxPoint x="1600" y="780" as="targetPoint"/>
                    </mxGeometry>
                </mxCell>
                <mxCell id="270" value="" style="line;strokeWidth=1;direction=south;html=1;perimeter=backbonePerimeter;points=[];outlineConnect=0;rounded=0;sketch=0;fontColor=#5C5C5C;fillColor=#E6E6E6;dashed=1;" parent="1" vertex="1">
                    <mxGeometry x="35" y="80" width="10" height="40" as="geometry"/>
                </mxCell>
                <mxCell id="271" value="&lt;font style=&quot;font-size: 12px&quot;&gt;「ゲストログイン」をクリック&lt;/font&gt;" style="text;html=1;align=center;verticalAlign=middle;resizable=0;points=[];autosize=1;strokeColor=none;fontColor=#5C5C5C;" parent="1" vertex="1">
                    <mxGeometry x="-150" y="90" width="180" height="20" as="geometry"/>
                </mxCell>
                <mxCell id="272" value="" style="endArrow=none;html=1;entryX=0.134;entryY=1.02;entryDx=0;entryDy=0;entryPerimeter=0;" parent="1" target="28" edge="1">
                    <mxGeometry width="50" height="50" relative="1" as="geometry">
                        <mxPoint x="2000" y="279" as="sourcePoint"/>
                        <mxPoint x="-150" y="400" as="targetPoint"/>
                        <Array as="points">
                            <mxPoint x="2000" y="1110"/>
                            <mxPoint x="-80" y="1120"/>
                        </Array>
                    </mxGeometry>
                </mxCell>
                <mxCell id="273" value="" style="line;strokeWidth=1;direction=south;html=1;perimeter=backbonePerimeter;points=[];outlineConnect=0;rounded=0;sketch=0;fontColor=#5C5C5C;fillColor=#E6E6E6;dashed=1;" vertex="1" parent="1">
                    <mxGeometry x="1710" y="40" width="10" height="80" as="geometry"/>
                </mxCell>
                <mxCell id="274" value="「管理画面」をクリック" style="text;html=1;align=center;verticalAlign=middle;resizable=0;points=[];autosize=1;strokeColor=none;fontColor=#5C5C5C;" vertex="1" parent="1">
                    <mxGeometry x="1745" y="90" width="150" height="20" as="geometry"/>
                </mxCell>
                <mxCell id="275" value="" style="endArrow=classic;html=1;fontColor=#5C5C5C;fillColor=#21C0A5;entryX=0.5;entryY=0;entryDx=0;entryDy=0;" edge="1" parent="1" target="276">
                    <mxGeometry width="50" height="50" relative="1" as="geometry">
                        <mxPoint x="1820" y="120" as="sourcePoint"/>
                        <mxPoint x="1820" y="350" as="targetPoint"/>
                    </mxGeometry>
                </mxCell>
                <mxCell id="276" value="" style="rounded=1;whiteSpace=wrap;html=1;absoluteArcSize=1;arcSize=14;strokeWidth=2;sketch=0;fontColor=#5C5C5C;fillColor=#00FFFF;" vertex="1" parent="1">
                    <mxGeometry x="1720" y="360" width="200" height="40" as="geometry"/>
                </mxCell>
                <mxCell id="278" value="&lt;b&gt;管理者画面&lt;/b&gt;" style="text;html=1;align=center;verticalAlign=middle;resizable=0;points=[];autosize=1;strokeColor=none;fontColor=#5C5C5C;" vertex="1" parent="1">
                    <mxGeometry x="1780" y="370" width="80" height="20" as="geometry"/>
                </mxCell>
                <mxCell id="280" value="&lt;b&gt;管理者ログイン時&lt;/b&gt;" style="text;html=1;align=center;verticalAlign=middle;resizable=0;points=[];autosize=1;strokeColor=none;fontColor=#5C5C5C;" vertex="1" parent="1">
                    <mxGeometry x="1765" y="50" width="110" height="20" as="geometry"/>
                </mxCell>
                <mxCell id="281" value="&lt;font style=&quot;font-size: 11px&quot;&gt;「ホーム」をクリック&lt;/font&gt;" style="rounded=1;whiteSpace=wrap;html=1;absoluteArcSize=1;arcSize=14;strokeWidth=2;sketch=0;fontColor=#5C5C5C;fillColor=#E6E6E6;" vertex="1" parent="1">
                    <mxGeometry x="1720" y="480" width="200" height="40" as="geometry"/>
                </mxCell>
                <mxCell id="282" value="&lt;font style=&quot;font-size: 11px&quot;&gt;「追加」をクリック&lt;/font&gt;" style="rounded=1;whiteSpace=wrap;html=1;absoluteArcSize=1;arcSize=14;strokeWidth=2;sketch=0;fontColor=#5C5C5C;fillColor=#E6E6E6;" vertex="1" parent="1">
                    <mxGeometry x="1720" y="440" width="200" height="40" as="geometry"/>
                </mxCell>
                <mxCell id="283" value="&lt;font style=&quot;font-size: 11px&quot;&gt;「詳細」をクリック&lt;/font&gt;" style="rounded=1;whiteSpace=wrap;html=1;absoluteArcSize=1;arcSize=14;strokeWidth=2;sketch=0;fontColor=#5C5C5C;fillColor=#E6E6E6;" vertex="1" parent="1">
                    <mxGeometry x="1720" y="400" width="200" height="40" as="geometry"/>
                </mxCell>
                <mxCell id="284" value="&lt;font style=&quot;font-size: 11px&quot;&gt;「ログアウト」をクリック&lt;/font&gt;" style="rounded=1;whiteSpace=wrap;html=1;absoluteArcSize=1;arcSize=14;strokeWidth=2;sketch=0;fontColor=#5C5C5C;fillColor=#E6E6E6;" vertex="1" parent="1">
                    <mxGeometry x="1720" y="520" width="200" height="40" as="geometry"/>
                </mxCell>
                <mxCell id="285" value="" style="endArrow=none;html=1;exitX=1;exitY=0.5;exitDx=0;exitDy=0;" edge="1" parent="1">
                    <mxGeometry width="50" height="50" relative="1" as="geometry">
                        <mxPoint x="1920" y="499.5" as="sourcePoint"/>
                        <mxPoint x="2000" y="499.5" as="targetPoint"/>
                    </mxGeometry>
                </mxCell>
                <mxCell id="286" value="" style="endArrow=classic;html=1;fontColor=#5C5C5C;fillColor=#21C0A5;exitX=1;exitY=0.5;exitDx=0;exitDy=0;" edge="1" parent="1" source="284">
                    <mxGeometry width="50" height="50" relative="1" as="geometry">
                        <mxPoint x="1931.1599999999999" y="565" as="sourcePoint"/>
                        <mxPoint x="560" y="238" as="targetPoint"/>
                        <Array as="points">
                            <mxPoint x="2040" y="540"/>
                            <mxPoint x="2040" y="30"/>
                            <mxPoint x="480" y="30"/>
                            <mxPoint x="480" y="160"/>
                            <mxPoint x="560" y="160"/>
                        </Array>
                    </mxGeometry>
                </mxCell>
            </root>
        </mxGraphModel>
    </diagram>
</mxfile>